<?xml version="1.0" encoding="UTF-8"?>
<!DOCTYPE svg PUBLIC "-//W3C//DTD SVG 1.1//EN" "http://www.w3.org/Graphics/SVG/1.1/DTD/svg11.dtd">
<!-- Creator: CorelDRAW X7 -->
<svg xmlns="http://www.w3.org/2000/svg" xml:space="preserve" width="2480px" height="3508px" version="1.1" style="shape-rendering:geometricPrecision; text-rendering:geometricPrecision; image-rendering:optimizeQuality; fill-rule:evenodd; clip-rule:evenodd"
viewBox="0 0 1148 1139"
 xmlns:xlink="http://www.w3.org/1999/xlink">
 <defs>
  <style type="text/css">
   <![CDATA[
    .fil0 {fill:#3B3B39}
    .fil4 {fill:#5AA235}
    .fil2 {fill:#81BF44}
    .fil3 {fill:#95CB49}
    .fil1 {fill:#B5E165}
   ]]>
  </style>
 </defs>
 <g id="Layer_x0020_1">
  <metadata id="CorelCorpID_0Corel-Layer"/>
  <g id="_1874007551168">
   <g>
    <path class="fil0" d="M511 887c-10,11 -46,36 -62,39 -5,7 0,1 -7,7 -9,8 0,-2 -8,9 -10,-1 -97,51 -112,60 -22,9 -47,24 -70,35 -67,34 -56,32 -64,12 -28,61 -114,52 -188,49l0 19c4,3 -3,1 10,5 3,1 8,2 11,2 50,9 118,28 147,1 22,-21 38,-19 67,-34 22,-12 40,-24 61,-37 60,-38 178,-124 264,-135l1 -6c-7,-4 -6,-3 -14,-10 -2,-2 -6,-6 -7,-7 -4,-4 -2,-2 -5,-6 -9,-2 -14,-5 -24,-3z"/>
    <path class="fil0" d="M945 807c-8,3 -6,4 -11,13 3,2 0,1 6,4 1,0 8,2 8,2 51,-1 107,7 154,-6 -4,-17 -7,-5 -6,-24 24,-21 51,-32 52,-50 -14,5 -52,42 -80,56 -42,21 -79,9 -123,5z"/>
   </g>
   <path class="fil1" d="M386 580l10 8c-20,45 -3,193 59,251 10,10 20,17 31,23 3,2 15,8 18,10 3,2 3,-3 6,10 5,19 -7,-9 1,5 10,-2 15,1 24,3 -9,-9 1,-17 17,-50l188 -396c12,-25 7,-24 20,-31 0,31 -34,99 -46,129 -17,41 -34,82 -52,124l-97 231c-7,15 -9,-1 -4,16l-1 6c10,3 29,22 41,30 15,9 34,17 51,21 39,10 83,1 120,-14 92,-37 104,-65 158,-129l18 -1c0,0 -7,-2 -8,-2 -6,-3 -3,-2 -6,-4 5,-9 3,-10 11,-13 2,-17 11,-30 18,-46 16,-35 37,-100 43,-138 14,-74 20,-140 19,-222 -3,-114 -41,-291 -81,-401 -17,-3 -34,15 -47,23 -17,9 -29,19 -44,27 -27,16 -58,38 -86,56 -50,32 -117,77 -163,120 -57,52 -93,85 -130,154 -32,59 -59,111 -74,176 -6,26 -6,21 -14,24z"/>
   <path class="fil2" d="M322 1002c15,-9 102,-61 112,-60l-8 -10c-24,-31 -177,-291 -179,-299 0,1 1,1 2,2l200 291c16,-3 52,-28 62,-39 -8,-14 4,14 -1,-5 -3,-13 -3,-8 -6,-10 -3,-2 -15,-8 -18,-10 -11,-6 -21,-13 -31,-23 -62,-58 -79,-206 -59,-251l-10 -8c-16,-22 -147,-84 -184,-99 -19,-8 -51,-25 -66,-29 -14,23 -18,139 -17,175 0,101 28,222 88,298 21,26 50,52 82,64 25,9 27,2 33,13z"/>
   <path class="fil3" d="M535 890c3,4 1,2 5,6 1,1 5,5 7,7 8,7 7,6 14,10 -5,-17 -3,-1 4,-16l97 -231c18,-42 35,-83 52,-124 12,-30 46,-98 46,-129 -13,7 -8,6 -20,31l-188 396c-16,33 -26,41 -17,50z"/>
   <path class="fil4" d="M434 942c8,-11 -1,-1 8,-9 7,-6 2,0 7,-7l-200 -291c-1,-1 -2,-1 -2,-2 2,8 155,268 179,299l8 10z"/>
  </g>
 </g>
</svg>
