<?xml version="1.0" encoding="UTF-8"?>
<!DOCTYPE svg PUBLIC "-//W3C//DTD SVG 1.1//EN" "http://www.w3.org/Graphics/SVG/1.1/DTD/svg11.dtd">
<!-- Creator: CorelDRAW X7 -->
<svg xmlns="http://www.w3.org/2000/svg" xml:space="preserve" width="2729px" height="2840px" version="1.1" style="shape-rendering:geometricPrecision; text-rendering:geometricPrecision; image-rendering:optimizeQuality; fill-rule:evenodd; clip-rule:evenodd"
viewBox="0 0 653 679"
 xmlns:xlink="http://www.w3.org/1999/xlink">
 <defs>
  <style type="text/css">
   <![CDATA[
    .fil0 {fill:#CC9211}
    .fil1 {fill:#FBBC04}
   ]]>
  </style>
 </defs>
 <g id="Layer_x0020_1">
  <metadata id="CorelCorpID_0Corel-Layer"/>
  <g id="_1874016468304">
   <g>
    <path class="fil0" d="M567 297c37,-1 51,5 73,-10l8 -6c13,-40 -4,-59 -47,-59 -81,0 -282,-4 -336,1 -35,3 -47,40 -22,65 42,43 83,116 125,89 39,-26 -2,-64 -12,-81l211 1z"/>
    <path class="fil0" d="M526 87c-67,3 -140,0 -207,0 -36,0 -73,-7 -85,21 -14,33 8,53 46,53l325 0c48,0 57,-34 38,-60l-85 -93c-15,-12 -33,-9 -45,1 -39,30 10,68 13,78z"/>
    <path class="fil0" d="M409 633c4,62 104,62 100,-7 -5,-66 -104,-58 -100,7z"/>
   </g>
   <g>
    <path class="fil1" d="M648 281l-8 6c-22,15 -36,9 -73,10 -10,63 -63,134 -133,150 -31,7 -246,8 -279,3 -1,-80 3,-165 -1,-245 -3,-70 -70,-195 -128,-182 -15,4 -26,17 -26,35 0,26 33,46 50,72 40,60 28,131 28,218 0,174 -15,178 71,178 83,0 165,0 247,0 79,0 138,-33 173,-75 32,-37 75,-104 79,-170z"/>
    <path class="fil1" d="M65 633c8,64 106,57 99,-11 -7,-67 -108,-50 -99,11z"/>
   </g>
  </g>
 </g>
</svg>
